<?xml version="1.0" encoding="UTF-8"?>
<svg width="449px" height="390px" viewBox="0 0 449 390" version="1.1" xmlns="http://www.w3.org/2000/svg" xmlns:xlink="http://www.w3.org/1999/xlink" xmlns:sketch="http://www.bohemiancoding.com/sketch/ns">
    <!-- Generator: Sketch 3.3.1 (12002) - http://www.bohemiancoding.com/sketch -->
    <title>YYlogo</title>
    <desc>Created with Sketch.</desc>
    <defs></defs>
    <g id="Page-1" stroke="none" stroke-width="1" fill="none" fill-rule="evenodd" sketch:type="MSPage">
        <path d="M49.8581145,381.118791 L213.835589,128.845752 C225.581902,112.400915 237.719576,96.478375 250.248976,81.0776544 C262.778375,65.6769338 275.96015,51.9731083 289.794696,39.9657668 C303.629242,27.9584253 318.246656,18.3657475 333.647376,11.1874455 C349.048097,4.0091435 365.362175,0.420046347 382.590099,0.420046347 C391.204062,0.420046347 399.491613,1.46414734 407.453003,3.55238064 C415.414392,5.64061394 422.462074,8.83817322 428.596259,13.1451544 C434.730445,17.4521356 439.624668,22.8684095 443.279076,29.3941385 C446.933485,35.9198676 448.760661,43.6201124 448.760661,52.495104 C448.760661,59.5428913 447.455535,65.8727536 444.845243,71.4848806 C442.234952,77.0970076 438.841624,81.7954621 434.665157,85.5803849 C430.48869,89.3653078 425.594467,92.3018418 419.98234,94.3900751 C414.370213,96.4783084 408.692914,97.5224094 402.950272,97.5224094 C396.946602,97.5224094 390.812508,96.4783084 384.547808,94.3900751 C378.283108,92.3018418 372.932091,89.822102 368.494595,86.9507812 L370.060762,83.8184469 C374.498258,85.645651 379.0662,87.3423151 383.764725,88.9084901 C388.46325,90.4746651 393.161704,91.2577408 397.860229,91.2577408 C405.430075,91.2577408 412.281988,87.8644126 418.416173,81.0776544 C424.550358,74.2908961 427.617405,63.8498862 427.617405,49.7543114 C427.617405,35.9197658 422.984207,25.0219617 413.717671,17.0605723 C409.652611,13.5680555 405.047582,10.841602 399.902553,8.88120175 L235.925072,261.154248 C224.17876,277.599085 212.041086,293.521625 199.511686,308.922346 C186.982286,324.323066 173.800511,338.026892 159.965965,350.034233 C146.13142,362.041575 131.514006,371.634253 116.113285,378.812555 C100.712565,385.990857 84.3984867,389.579954 67.1705619,389.579954 C58.5565995,389.579954 50.2690479,388.535853 42.3076585,386.447619 C34.346269,384.359386 27.2985873,381.161827 21.164402,376.854846 C15.0302167,372.547864 10.1359933,367.131591 6.48158501,360.605861 C2.82717673,354.080132 1,346.379888 1,337.504896 C1,330.457109 2.30512624,324.127246 4.91541787,318.515119 C7.52570949,312.902992 10.9190377,308.204538 15.0955043,304.419615 C19.2719709,300.634692 24.1661943,297.698158 29.7783213,295.609925 C35.3904483,293.521692 41.0677474,292.477591 46.810389,292.477591 C52.8140598,292.477591 58.9481531,293.521692 65.212853,295.609925 C71.4775529,297.698158 76.8285705,300.177898 81.2660662,303.049219 L79.6998991,306.181553 C75.2624033,304.354349 70.6944615,302.657685 65.9959366,301.09151 C61.2974116,299.525335 56.5989572,298.742259 51.9004322,298.742259 C44.3305865,298.742259 37.4786738,302.135587 31.3444885,308.922346 C25.2103031,315.709104 22.1432565,326.150114 22.1432565,340.245689 C22.1432565,354.080234 26.7764546,364.978038 36.0429899,372.939428 C40.1080504,376.431944 44.7130798,379.158398 49.8581086,381.118798 Z M375.701604,5.14287999 C364.045184,5.45845609 352.506977,8.84367831 341.08667,15.2986342 C329.079329,22.0853925 317.463705,31.0255072 306.239451,42.1192466 C295.015197,53.212986 284.117393,65.6769416 273.545712,79.5114872 C262.974031,93.3460329 252.989815,107.310884 243.592765,121.406458 C234.195715,135.502033 225.386113,149.075346 217.163695,162.126804 C208.941276,175.178262 201.4368,186.271835 194.650042,195.407856 C203.002971,187.054919 211.812573,177.462241 221.862196,167.412618 C231.911819,157.362996 242.418085,148.227112 253.38131,140.004693 C264.344535,131.782275 275.372851,124.995618 286.466591,119.64452 C292.95297,116.515796 299.238515,114.30175 305.323289,113.002366 L375.701604,5.14287999 Z M301.735935,118.500228 C296.539387,120.032753 290.862307,122.371889 284.704653,125.517647 C272.697311,131.651832 260.233356,139.939384 247.312412,150.380551 C234.391469,160.821717 221.601232,172.959391 208.941317,186.793937 C196.281403,200.628482 184.861548,215.245896 174.681411,230.646617 L148.024727,271.499772 C153.221274,269.967247 158.898354,267.628111 165.056009,264.482353 C177.06335,258.348168 189.527306,250.060616 202.448249,239.619449 C215.369193,229.178283 228.15943,217.040609 240.819344,203.206063 C253.479259,189.371518 264.899113,174.754104 275.079251,159.353383 L301.735935,118.500228 Z M144.437372,276.997634 L74.0590575,384.85712 C85.7154778,384.541544 97.2536847,381.156322 108.673991,374.701366 C120.681333,367.914608 132.296956,358.974493 143.52121,347.880753 C154.745464,336.787014 165.643268,324.323058 176.214949,310.488513 C186.786631,296.653967 196.770846,282.689116 206.167896,268.593542 C215.564946,254.497967 224.374548,240.924654 232.596967,227.873196 C240.819385,214.821738 248.323861,203.728165 255.110619,194.592144 C246.75769,202.945081 237.948088,212.537759 227.898465,222.587382 C217.848843,232.637004 207.342576,241.772888 196.379351,249.995307 C185.416127,258.217725 174.38781,265.004382 163.294071,270.35548 C156.807692,273.484204 150.522146,275.69825 144.437372,276.997634 Z" id="Y-Copy" fill="#000000" sketch:type="MSShapeGroup"></path>
    </g>
</svg>